<?xml version="1.0" encoding="iso-8859-1"?><!DOCTYPE svg PUBLIC "-//W3C//DTD SVG 1.1//EN" "http://www.w3.org/Graphics/SVG/1.1/DTD/svg11.dtd"><svg viewBox="0 0 512 512" xmlns="http://www.w3.org/2000/svg" xmlns:xlink="http://www.w3.org/1999/xlink"><style>:root>svg{display:none}:root>svg:target{display:block}</style><svg viewBox="0 0 512 512" id="fb" xmlns="http://www.w3.org/2000/svg"><path d="M448 0H64C28.704 0 0 28.704 0 64v384c0 35.296 28.704 64 64 64h192V336h-64v-80h64v-64c0-53.024 42.976-96 96-96h64v80h-32c-17.664 0-32-1.664-32 16v64h80l-32 80h-48v176h96c35.296 0 64-28.704 64-64V64c0-35.296-28.704-64-64-64z"/></svg><svg viewBox="0 0 510 510" id="gl" xmlns="http://www.w3.org/2000/svg"><path d="M286.875 229.5v63.75h150.45c-15.3 89.25-86.7 153-175.95 153-104.55 0-191.25-86.7-191.25-191.25s86.7-191.25 191.25-191.25c53.55 0 99.45 22.95 132.6 58.65l45.9-45.9c-45.9-45.9-107.1-76.5-178.5-76.5-140.25 0-255 114.75-255 255s114.75 255 255 255 242.25-114.75 242.25-255v-25.5h-216.75z"/></svg><svg viewBox="0 0 123.969 123.97" id="left" xmlns="http://www.w3.org/2000/svg"><path d="M96.059 24.603c5.799-5.801 5.699-15.301-.5-20.9-5.801-5.3-14.801-4.8-20.301.8l-47.4 47.3c-2.8 2.801-4.2 6.5-4.2 10.2s1.4 7.4 4.2 10.2l47.3 47.3c5.5 5.5 14.6 6.101 20.3.8 6.101-5.6 6.3-15.1.5-20.899l-30.2-30.3a9.96 9.96 0 010-14.101l30.301-30.4z"/></svg><svg fill="none" viewBox="0 0 103 23" id="logo" xmlns="http://www.w3.org/2000/svg"><path fill-rule="evenodd" clip-rule="evenodd" d="M5.132 13.16l-.995 1.874v6.293H.916V.837h3.22v8.928L8.351.836h3.22L7.093 9.97l4.479 11.358H8.264L5.132 13.16zm10.985 3.454c0 .742.152 1.264.454 1.566.303.303.707.454 1.215.454.507 0 .912-.151 1.215-.454.302-.302.453-.824.453-1.566V5.55c0-.741-.15-1.263-.453-1.566-.303-.302-.708-.454-1.215-.454-.508 0-.912.152-1.215.454-.302.303-.454.825-.454 1.566v11.065zm-3.22-10.86c0-1.659.42-2.932 1.26-3.82.838-.888 2.048-1.332 3.629-1.332 1.58 0 2.79.444 3.63 1.332.839.888 1.259 2.161 1.259 3.82V16.41c0 1.66-.42 2.933-1.26 3.82-.838.889-2.048 1.332-3.629 1.332-1.58 0-2.79-.444-3.63-1.331-.839-.888-1.258-2.162-1.258-3.82V5.753zm15.055.732v14.841h-2.898V.837h4.04L32.4 13.101V.836h2.869v20.491h-3.308l-4.01-14.841zm9.551-.732c0-1.659.395-2.932 1.186-3.82.79-.888 1.976-1.332 3.556-1.332 1.581 0 2.767.444 3.557 1.332.79.888 1.186 2.161 1.186 3.82v.644h-3.045V5.55c0-.741-.141-1.263-.424-1.566-.283-.302-.678-.454-1.186-.454-.507 0-.902.152-1.185.454-.283.303-.425.825-.425 1.566 0 .703.157 1.322.469 1.86a7.742 7.742 0 001.17 1.521c.469.478.971.957 1.508 1.435.537.478 1.04 1 1.508 1.566.468.566.858 1.21 1.17 1.932.313.722.469 1.57.469 2.546 0 1.66-.405 2.933-1.215 3.82-.81.889-2.005 1.332-3.586 1.332-1.58 0-2.776-.444-3.586-1.331-.81-.888-1.215-2.162-1.215-3.82v-1.26h3.045v1.464c0 .742.151 1.26.454 1.552.302.293.707.439 1.214.439.508 0 .913-.146 1.215-.44.303-.292.454-.81.454-1.55 0-.703-.156-1.323-.468-1.86a7.735 7.735 0 00-1.171-1.522c-.469-.478-.971-.956-1.508-1.434-.536-.478-1.039-1-1.507-1.566A7.975 7.975 0 0137.972 8.3c-.313-.722-.469-1.571-.469-2.547zM48.255.836h9.952v2.928h-3.366v17.563h-3.22V3.764h-3.366V.836zm18.42 20.491a9.056 9.056 0 00-.117-.38 2.958 2.958 0 01-.102-.44c-.03-.175-.049-.4-.059-.673-.01-.273-.014-.614-.014-1.024v-3.22c0-.956-.166-1.63-.498-2.02-.332-.39-.868-.585-1.61-.585h-1.112v8.342h-3.22V.837h4.86c1.678 0 2.892.39 3.644 1.17.751.78 1.127 1.962 1.127 3.542v1.61c0 2.108-.703 3.494-2.108 4.157.82.332 1.38.873 1.683 1.625.303.751.454 1.663.454 2.737v3.161c0 .508.02.951.059 1.332.038.38.136.766.292 1.156h-3.278zM63.164 3.764v6.293h1.258c.605 0 1.079-.156 1.42-.468.342-.312.513-.878.513-1.698v-2.02c0-.741-.132-1.278-.396-1.61-.263-.331-.678-.497-1.244-.497h-1.551zM75.115.836v15.808c0 .741.15 1.258.453 1.551.303.293.708.44 1.215.44.507 0 .912-.147 1.215-.44.302-.293.454-.81.454-1.551V.836h3.044V16.44c0 1.659-.405 2.932-1.215 3.82-.81.888-2.005 1.332-3.586 1.332-1.58 0-2.776-.444-3.586-1.332-.81-.888-1.215-2.162-1.215-3.82V.836h3.22zm17.705 0h9.953v2.928h-3.366v17.563h-3.22V3.764H92.82V.836z" fill="#fff"/><path fill-rule="evenodd" clip-rule="evenodd" d="M83.025 11.485L91.39 1.031V21.94l-8.364-10.455z" fill="#00A4E5"/></svg><svg fill="none" viewBox="0 0 81 18" id="logo-black" xmlns="http://www.w3.org/2000/svg"><path fill-rule="evenodd" clip-rule="evenodd" d="M4.234 10.3l-.78 1.465v4.926H.935V.655h2.52v6.987l3.3-6.987h2.52L5.769 7.802l3.505 8.889h-2.59l-2.45-6.392zm8.597 2.702c0 .58.118.99.355 1.226.237.237.554.355.95.355.398 0 .715-.118.952-.355.236-.237.355-.645.355-1.226v-8.66c0-.58-.119-.988-.355-1.225-.237-.236-.554-.355-.951-.355-.397 0-.714.119-.95.355-.238.237-.356.646-.356 1.226v8.66zm-2.52-8.499c0-1.298.329-2.294.985-2.99C11.953.82 12.9.472 14.136.472c1.238 0 2.185.348 2.842 1.043.656.695.985 1.691.985 2.99v8.338c0 1.298-.329 2.295-.985 2.99-.657.695-1.604 1.042-2.841 1.042s-2.184-.347-2.84-1.042c-.658-.695-.986-1.692-.986-2.99V4.503zm11.782.573v11.615h-2.268V.655h3.161l2.589 9.598V.655h2.245V16.69h-2.589L22.093 5.076zm7.475-.573c0-1.298.31-2.294.928-2.99C31.114.82 32.042.472 33.279.472c1.237 0 2.165.348 2.784 1.043.618.695.927 1.691.927 2.99v.503h-2.382v-.664c0-.58-.11-.989-.332-1.226-.222-.236-.531-.355-.928-.355s-.706.119-.928.355c-.221.237-.332.646-.332 1.226 0 .55.122 1.035.367 1.455.244.42.55.817.916 1.19.366.375.76.75 1.18 1.123.42.375.813.783 1.18 1.226.366.443.672.947.916 1.512.244.565.366 1.23.366 1.993 0 1.298-.316 2.295-.95 2.99-.634.695-1.57 1.042-2.807 1.042-1.237 0-2.172-.347-2.806-1.042-.634-.695-.95-1.692-.95-2.99v-.985h2.382v1.146c0 .58.118.985.355 1.214.237.229.553.343.95.343.398 0 .715-.114.951-.343.237-.23.355-.634.355-1.215 0-.55-.122-1.034-.366-1.454a6.055 6.055 0 00-.916-1.191c-.367-.375-.76-.749-1.18-1.123-.42-.374-.814-.783-1.18-1.226a6.238 6.238 0 01-.916-1.512c-.245-.565-.367-1.23-.367-1.993zM37.982.655h7.789v2.29h-2.635v13.746h-2.52V2.945h-2.634V.655zM52.398 16.69a7.342 7.342 0 00-.091-.298 2.303 2.303 0 01-.08-.344 4.222 4.222 0 01-.046-.526 22.986 22.986 0 01-.012-.802V12.2c0-.749-.13-1.276-.39-1.581-.259-.305-.679-.458-1.26-.458h-.87v6.529h-2.52V.655h3.803c1.314 0 2.264.305 2.852.916.588.61.882 1.535.882 2.772v1.26c0 1.65-.55 2.734-1.65 3.253.642.26 1.081.683 1.318 1.271.237.588.355 1.302.355 2.142v2.475c0 .397.016.744.046 1.042.03.298.107.6.23.905h-2.567zM49.65 2.945v4.926h.985c.474 0 .844-.122 1.111-.367.268-.244.401-.687.401-1.328V4.595c0-.58-.103-1-.309-1.26-.206-.26-.53-.39-.974-.39H49.65zm9.354-2.29v12.37c0 .58.118.986.355 1.215.236.229.553.343.95.343.398 0 .715-.114.951-.343.237-.23.355-.634.355-1.215V.655h2.383v12.21c0 1.298-.317 2.295-.95 2.99-.635.695-1.57 1.042-2.807 1.042-1.237 0-2.173-.347-2.807-1.042-.633-.695-.95-1.692-.95-2.99V.655h2.52zm13.856 0h7.79v2.29h-2.635v13.746h-2.52V2.945h-2.635V.655z" fill="#171819"/><path fill-rule="evenodd" clip-rule="evenodd" d="M65.194 8.988L71.739.807V17.17l-6.545-8.182z" fill="#00A4E5"/></svg><svg viewBox="0 0 123.97 123.97" id="right" xmlns="http://www.w3.org/2000/svg"><path d="M27.961 99.367c-5.8 5.8-5.7 15.3.5 20.899 5.8 5.301 14.8 4.801 20.3-.8l47.3-47.3c2.8-2.8 4.2-6.5 4.2-10.2s-1.4-7.399-4.2-10.2l-47.2-47.3c-5.5-5.5-14.6-6.1-20.3-.8-6.1 5.6-6.3 15.1-.5 20.9l30.2 30.399a9.96 9.96 0 010 14.101l-30.3 30.301z"/></svg><svg viewBox="0 0 438.536 438.536" id="tw" xmlns="http://www.w3.org/2000/svg"><path d="M414.41 24.123C398.333 8.042 378.963 0 356.315 0H82.228C59.58 0 40.21 8.042 24.126 24.123 8.045 40.207.003 59.576.003 82.225v274.084c0 22.647 8.042 42.018 24.123 58.102 16.084 16.084 35.454 24.126 58.102 24.126h274.084c22.648 0 42.018-8.042 58.095-24.126 16.084-16.084 24.126-35.454 24.126-58.102V82.225c-.001-22.649-8.043-42.021-24.123-58.102zm-78.939 144.612c.191 1.713.288 4.278.288 7.71 0 15.989-2.334 32.025-6.995 48.104-4.661 16.087-11.8 31.504-21.416 46.254-9.606 14.749-21.074 27.791-34.396 39.115-13.325 11.32-29.311 20.365-47.968 27.117-18.648 6.762-38.637 10.143-59.953 10.143-33.116 0-63.76-8.952-91.931-26.836 4.568.568 9.329.855 14.275.855 27.6 0 52.439-8.565 74.519-25.7-12.941-.185-24.506-4.179-34.688-11.991-10.185-7.803-17.273-17.699-21.271-29.691 4.947.76 8.658 1.137 11.132 1.137 4.187 0 9.042-.76 14.56-2.279-13.894-2.669-25.598-9.562-35.115-20.697-9.519-11.136-14.277-23.84-14.277-38.114v-.571c10.085 4.755 19.602 7.229 28.549 7.422-17.321-11.613-25.981-28.265-25.981-49.963 0-10.66 2.758-20.747 8.278-30.264 15.035 18.464 33.311 33.213 54.816 44.252 21.507 11.038 44.54 17.227 69.092 18.558-.95-3.616-1.427-8.186-1.427-13.704 0-16.562 5.853-30.692 17.56-42.399 11.703-11.706 25.837-17.561 42.394-17.561 17.515 0 32.079 6.283 43.688 18.846 13.134-2.474 25.892-7.33 38.26-14.56-4.757 14.652-13.613 25.788-26.55 33.402 12.368-1.716 23.88-4.95 34.537-9.708-7.993 12.181-17.989 22.554-29.98 31.123z"/></svg><svg viewBox="0 0 123.969 123.97" id="up-arrow" xmlns="http://www.w3.org/2000/svg"><path d="M120.266 95.584c5.301-5.801 4.801-14.801-.8-20.301l-47.3-47.4c-2.8-2.8-6.5-4.2-10.2-4.2s-7.399 1.4-10.2 4.2l-47.299 47.3c-5.5 5.5-6.1 14.6-.8 20.3 5.6 6.101 15.099 6.3 20.9.5l30.3-30.3a9.959 9.959 0 0114.1 0l30.3 30.3c5.9 5.9 15.4 5.701 20.999-.399z"/></svg></svg>